<?xml version="1.0" encoding="UTF-8" standalone="no"?>
<!DOCTYPE svg PUBLIC "-//W3C//DTD SVG 1.1//EN" "http://www.w3.org/Graphics/SVG/1.1/DTD/svg11.dtd">
<svg width="100%" height="100%" viewBox="0 0 1016 1502" version="1.1" xmlns="http://www.w3.org/2000/svg" xmlns:xlink="http://www.w3.org/1999/xlink" xml:space="preserve" xmlns:serif="http://www.serif.com/" style="fill-rule:evenodd;clip-rule:evenodd;stroke-linecap:round;stroke-linejoin:round;stroke-miterlimit:1.5;">
    <g id="colorOptions">
        <g id="warn" transform="matrix(0.781507,-0.517168,0.517168,0.781507,-428.514629,482.25064)">
            <path d="M329.952,1223.437C369.74,1223.437 402.043,1255.74 402.043,1295.528C402.043,1335.316 369.74,1367.619 329.952,1367.619C290.164,1367.619 257.861,1335.316 257.861,1295.528C257.861,1255.74 290.164,1223.437 329.952,1223.437ZM329.952,1233.04C295.464,1233.04 267.464,1261.04 267.464,1295.528C267.464,1330.015 295.464,1358.015 329.952,1358.015C364.439,1358.015 392.439,1330.015 392.439,1295.528C392.439,1261.04 364.439,1233.04 329.952,1233.04Z" style="fill:rgb(0,132,213);"/>
        </g>
        <g id="green" transform="matrix(0.936915,0.020148,-0.020148,0.936915,36.079247,46.864252)">
            <circle cx="329.952" cy="1295.528" r="62.487" style="fill:none;stroke:rgb(235,235,235);stroke-width:6.4px;"/>
        </g>
        <g id="lime" transform="matrix(0.353354,-0.867961,0.867961,0.353354,-562.941025,1097.823674)">
            <circle cx="329.952" cy="1295.528" r="62.487" style="fill:none;stroke:rgb(235,235,235);stroke-width:6.4px;"/>
        </g>
        <g id="red" transform="matrix(0.530587,0.772459,-0.772459,0.530587,1009.115812,70.033371)">
            <circle cx="329.952" cy="1295.528" r="62.487" style="fill:none;stroke:rgb(235,235,235);stroke-width:6.4px;"/>
        </g>
        <g id="magenta" transform="matrix(-0.329277,0.877378,-0.877378,-0.329277,1560.044387,887.849757)">
            <circle cx="329.952" cy="1295.528" r="62.487" style="fill:none;stroke:rgb(235,235,235);stroke-width:6.4px;"/>
        </g>
        <g id="blue" transform="matrix(-0.936038,-0.045269,0.045269,-0.936038,937.990532,1980.192873)">
            <circle cx="329.952" cy="1295.528" r="62.487" style="fill:none;stroke:rgb(235,235,235);stroke-width:6.4px;"/>
        </g>
    </g>
</svg>
