<?xml version="1.0" encoding="UTF-8" standalone="no"?>
<svg
   width="180"
   height="180"
   viewBox="0 0 180 180"
   fill="none"
   version="1.1"
   id="svg3"
   sodipodi:docname="icon.svg"
   inkscape:version="1.4.2 (ebf0e940, 2025-05-08)"
   xmlns:inkscape="http://www.inkscape.org/namespaces/inkscape"
   xmlns:sodipodi="http://sodipodi.sourceforge.net/DTD/sodipodi-0.dtd"
   xmlns="http://www.w3.org/2000/svg"
   xmlns:svg="http://www.w3.org/2000/svg">
  <sodipodi:namedview
     id="namedview3"
     pagecolor="#ffffff"
     bordercolor="#000000"
     borderopacity="0.25"
     inkscape:showpageshadow="2"
     inkscape:pageopacity="0.0"
     inkscape:pagecheckerboard="0"
     inkscape:deskcolor="#d1d1d1"
     inkscape:zoom="2.9661998"
     inkscape:cx="93.385482"
     inkscape:cy="100.12812"
     inkscape:window-width="1728"
     inkscape:window-height="1051"
     inkscape:window-x="0"
     inkscape:window-y="38"
     inkscape:window-maximized="1"
     inkscape:current-layer="svg3" />
  <style
     id="style1">
    @media (prefers-color-scheme: light) {
      .background { fill: black; }
      .foreground { fill: white; }
    }
    @media (prefers-color-scheme: dark) {
      .background { fill: white; }
      .foreground { fill: black; }
    }
  </style>
  <defs
     id="defs3">
    <clipPath
       id="clip0_7960_43945">
      <rect
         width="180"
         height="180"
         fill="white"
         id="rect3" />
    </clipPath>
  </defs>
  <path
     style="fill:#09111d;fill-opacity:1;stroke-width:2.81703"
     d="M 29.198247,179.93515 C 23.561457,179.411 17.547593,177.04672 12.852219,173.50894 6.8680627,169.00009 2.7711694,162.81431 0.76518414,155.25912 L 0.10882217,152.787 0.0369995,91.123974 C -0.04299004,22.542317 -0.14974404,27.361733 1.5659008,22.185453 3.2231577,17.185439 5.9144053,12.944855 9.8612831,9.1144603 13.641586,5.4457281 17.863987,2.9063878 22.640144,1.4293267 c 4.917775,-1.5208436 0.56156,-1.4282352 67.176135,-1.4282352 41.803961,0 61.208191,0.07917578 62.389821,0.25469544 14.6841,2.18175406 25.93651,13.90016506 27.58552,28.72796106 0.18983,1.707055 0.24307,19.514665 0.18758,62.617159 l -0.0778,60.231793 -0.53435,2.32431 c -1.51944,6.60932 -4.28417,11.64011 -8.96067,16.30498 -4.72785,4.71612 -9.69328,7.45323 -16.25466,8.96011 l -2.37683,0.54586 -60.811341,0.0278 c -33.446239,0.0152 -61.240599,-0.0121 -61.765254,-0.0608 z m 52.583921,-24.99623 v -1.30694 l -4.70988,-0.0647 -4.709902,-0.0647 -0.07322,-1.0138 -0.07322,-1.01379 h 2.756196 2.756172 v -1.31199 -1.31198 h -2.755556 -2.755521 l 0.07265,-1.13306 0.07264,-1.13308 4.709903,-0.0647 4.709879,-0.0647 v -1.18765 -1.18768 l -4.948363,7.4e-4 c -4.542568,7.5e-4 -5.013116,0.0403 -5.737762,0.48232 -1.248764,0.76154 -1.476145,1.63582 -1.476145,5.67593 0,3.29416 0.03906,3.60902 0.541331,4.36103 0.999144,1.49607 1.623378,1.64466 6.91106,1.64507 l 4.709879,3.8e-4 z m 3.631271,-2.87956 0.06511,-4.18651 3.577142,4.17929 3.577142,4.1793 1.251997,0.008 1.251997,0.008 v -6.0828 -6.08283 h -1.311632 -1.311632 v 4.07509 4.07508 l -3.510117,-4.07508 -3.510162,-4.07509 h -1.259375 -1.259353 v 6.08283 6.0828 h 1.186867 1.186879 z m 23.078051,2.87451 v -1.31198 h -4.744 c -5.191312,0 -5.033514,0.0455 -5.033514,-1.45076 v -0.69611 h 2.861714 2.86171 v -1.31198 -1.31197 h -2.86171 -2.861714 v -0.90646 c 0,-0.49855 0.128716,-1.03528 0.286171,-1.19271 0.202799,-0.20285 1.626923,-0.28625 4.888753,-0.28625 h 4.60259 v -1.19269 -1.19273 l -4.94838,7.4e-4 c -7.125404,0.001 -7.213903,0.076 -7.213903,6.09291 0,5.89077 0.206182,6.05852 7.452363,6.06658 l 4.70992,0.006 z m 3.52615,-1.13307 0.0682,-2.32578 h 2.09094 2.09094 l 1.29873,2.29485 c 0.71426,1.26217 1.41879,2.34171 1.56559,2.39897 0.14675,0.0573 0.8158,0.0712 1.48663,0.0309 l 1.21974,-0.0732 -1.33185,-2.34147 c -0.73251,-1.2878 -1.29418,-2.36689 -1.24816,-2.39797 0.0459,-0.0311 0.38394,-0.24456 0.75089,-0.47437 2.09139,-1.30976 2.1644,-5.10391 0.12225,-6.34934 -0.72467,-0.44193 -1.19522,-0.48149 -5.7378,-0.48231 l -4.94835,-7.4e-4 v 6.09528 6.09528 l 1.25199,-0.072 1.252,-0.0722 z m 0.0509,-6.14244 v -1.20581 l 3.39829,0.0662 3.39827,0.0662 v 1.07345 1.07344 l -3.39827,0.0662 -3.39829,0.0662 z m 20.5762,8.26042 c 0.42207,-0.17989 1.03568,-0.61759 1.36357,-0.97269 0.55103,-0.59671 0.60228,-0.85205 0.67634,-3.37032 l 0.0803,-2.7247 h -3.13318 -3.13318 l 0.0722,1.25233 0.0722,1.25235 1.8482,0.0697 1.84819,0.0697 -0.003,0.76521 c -0.006,1.35536 -0.0814,1.3818 -3.71112,1.30895 l -3.32026,-0.0667 v -3.45885 -3.45886 l 3.28108,-0.0664 3.28108,-0.0663 0.27462,0.6031 c 0.23886,0.52417 0.42574,0.60309 1.4288,0.60309 1.07805,0 1.1541,-0.0401 1.1541,-0.6082 0,-0.90825 -0.64209,-1.978 -1.50204,-2.50248 -0.67323,-0.41061 -1.21445,-0.46566 -4.5791,-0.46566 -5.76789,0 -6.08113,0.31634 -6.08113,6.14145 0,3.31072 0.0388,3.62454 0.54132,4.37696 0.93296,1.39695 1.75929,1.64465 5.48786,1.64507 2.25285,2.5e-4 3.52808,-0.10249 4.05409,-0.3267 z m 10.42566,-2.05834 v -2.38542 l 0.77505,-0.001 c 1.37113,-0.002 2.50218,-0.46206 3.25943,-1.32474 0.72549,-0.82651 0.73504,-0.87142 0.73504,-3.45306 v -2.61566 h -1.19237 -1.1924 l -0.003,2.08724 c -0.002,1.14798 -0.0907,2.22458 -0.19717,2.39242 -0.14561,0.22945 -1.01761,0.28864 -3.51387,0.23855 l -3.32026,-0.0667 -0.0682,-2.32578 -0.0682,-2.32579 h -1.32933 -1.32938 l 0.0932,2.56432 c 0.13041,3.58573 0.81252,4.46827 3.68273,4.76459 l 1.28479,0.13264 v 2.35204 2.35204 h 1.19237 1.1924 z m 22.6831,-15.91747 c 1.15718,-0.68374 1.64145,-2.02702 1.64145,-4.55317 v -2.19083 h -3.1002 -3.10019 v 1.19273 1.1927 h 1.80163 1.80164 l -0.0726,1.13308 -0.0726,1.13305 -3.24444,0.0662 c -2.56799,0.0524 -3.30288,-0.006 -3.52463,-0.27159 -0.19154,-0.23103 -0.25914,-1.34443 -0.21351,-3.52503 l 0.0668,-3.18728 3.41887,-0.0662 c 3.26238,-0.0633 3.42465,-0.0442 3.54531,0.41745 0.10736,0.41041 0.32113,0.48376 1.41029,0.48376 1.4572,0 1.50266,-0.091 0.80965,-1.61822 -0.72655,-1.60125 -1.74004,-1.94816 -5.71055,-1.95467 -2.71191,-0.006 -3.35341,0.0673 -4.17854,0.46679 -1.64859,0.79828 -1.79903,1.28784 -1.79903,5.85457 v 3.98682 l 0.92583,0.92611 0.92586,0.92609 h 3.98573 c 3.34862,0 4.09726,-0.0659 4.6834,-0.41225 z m -93.271975,-2.2117 v -2.38543 h 2.874198 2.874163 l -0.07219,-1.25235 -0.07219,-1.25234 -2.815431,-0.0673 -2.815431,-0.0673 0.07299,-1.0061 0.07299,-1.00612 4.769515,-0.11919 4.769503,-0.11916 v -1.19274 -1.1927 l -4.705516,-0.0648 c -5.303833,-0.073 -6.035904,0.0789 -6.85444,1.42192 -0.441822,0.72485 -0.481365,1.19552 -0.482188,5.73934 l -7.42e-4,4.94976 h 1.192373 1.192361 z m 23.370652,1.19269 v -1.19269 h -4.392298 c -2.41578,0 -4.562065,-0.065 -4.769537,-0.14482 -0.326469,-0.12538 -0.377206,-0.78307 -0.377206,-4.8901 v -4.7453 h -1.311621 -1.311598 v 4.63601 c 0,2.70497 0.105884,4.91574 0.254338,5.30755 0.306537,0.8092 1.119957,1.72441 1.772689,1.99446 0.26223,0.10844 2.65006,0.20427 5.306106,0.21244 l 4.829127,0.0141 z m 11.670613,0.75685 c 1.44471,-0.77501 1.68415,-1.57787 1.68314,-5.6432 -7.5e-4,-3.15331 -0.0575,-3.67489 -0.47478,-4.35932 -0.92503,-1.51762 -1.59996,-1.72533 -5.60918,-1.72635 -5.6952,-10e-4 -6.07742,0.38534 -6.07742,6.1497 0,4.08154 0.178288,4.74028 1.502062,5.54761 0.670411,0.4089 1.21445,0.46576 4.463568,0.46655 3.12921,7.4e-4 3.82545,-0.0665 4.51261,-0.43499 z m -7.718746,-2.3244 c -0.300084,-0.30019 -0.373997,-0.95349 -0.371096,-3.27996 0.0023,-1.59778 0.09069,-3.04241 0.197159,-3.21025 0.145632,-0.22934 1.017613,-0.28865 3.513873,-0.23864 l 3.32026,0.0668 0.0668,3.32118 c 0.0501,2.49693 -0.008,3.36923 -0.23858,3.51483 -0.16787,0.1065 -1.61201,0.19525 -3.20939,0.19723 -2.32579,0.003 -2.97895,-0.071 -3.279058,-0.3712 z m 12.979926,0.37486 v -2.38543 h 3.57714 3.57714 v 2.38543 2.38542 h 1.32889 1.32886 l -0.0769,-4.99257 c -0.0709,-4.6063 -0.11519,-5.0446 -0.57079,-5.66536 -0.94238,-1.28373 -1.76997,-1.50696 -5.58722,-1.50696 -3.94568,0 -4.76907,0.24568 -5.59609,1.66904 -0.43596,0.75043 -0.49286,1.32368 -0.56226,5.66538 l -0.0772,4.83047 h 1.32918 1.3292 z m 0.0459,-6.02316 0.0732,-1.01383 h 3.45793 3.4579 l 0.0732,1.01383 0.0732,1.01379 h -3.60456 -3.60457 z m 18.07826,3.63773 v -4.77082 h 2.38474 2.38477 v -1.312 -1.31195 h -6.0936 -6.09361 l 0.0722,1.25235 0.0722,1.25234 2.32513,0.0683 2.32515,0.0683 v 4.76219 4.76221 h 1.31163 1.31162 z m 9.06207,-1.31195 v -6.08282 h -1.19237 -1.1924 v 6.08282 6.0828 h 1.1924 1.19237 z m 4.53105,2.01267 v -4.0701 l 3.50748,4.0701 3.50751,4.07013 h 1.26203 1.262 v -6.09529 -6.09526 l -1.252,0.0721 -1.252,0.0722 -0.11915,3.98869 -0.11914,3.9887 -3.45791,-4.04114 -3.45791,-4.04114 -1.252,-0.008 -1.252,-0.008 v 6.08281 6.08281 h 1.31163 1.31163 z m -7.12811,-18.46399 c 9.44731,-1.65495 16.70858,-8.33378 19.32997,-17.779406 0.37285,-1.343434 0.52585,-2.754653 0.61418,-5.665387 l 0.11773,-3.876292 h -10.04397 -10.04398 v 2.469404 c 0,2.705409 -0.29321,3.468561 -1.74643,4.545633 -0.67166,0.497812 -0.72655,0.499014 -22.53597,0.499014 H 91.202052 l -0.780466,-0.556798 c -1.58268,-1.129165 -1.723527,-1.765285 -1.723527,-7.782656 v -5.376669 h 34.349311 34.34928 l -0.0732,-17.473192 c -0.0715,-17.093148 -0.0845,-17.512972 -0.59065,-19.304058 -2.48361,-8.787595 -8.75221,-15.029049 -17.49421,-17.418476 l -2.01072,-0.54957 H 113.02257 88.817261 L 86.7902,27.867775 c -2.061635,0.563117 -5.888054,2.241852 -7.136133,3.130821 -0.37836,0.269638 -0.79455,0.489988 -0.924854,0.489988 -0.130407,0 -0.93526,-0.42437 -1.788794,-0.943055 -1.811489,-1.100823 -3.863587,-1.968665 -6.366576,-2.692492 -1.771157,-0.512203 -2.01445,-0.518009 -24.980322,-0.59557 L 22.401752,27.179137 V 37.20574 47.232355 h 21.785275 21.785276 l 0.788371,0.53671 c 1.768725,1.204115 1.778125,1.242603 1.85784,7.590579 l 0.0715,5.708122 H 45.545822 22.401603 V 71.563595 82.059436 H 45.533771 68.665939 V 98.988785 115.9181 l 33.353161,0.008 c 28.29586,0.006 33.65658,-0.0456 35.35406,-0.34302 z M 71.527698,96.13335 V 79.196912 H 48.395542 25.263374 v -7.633351 -7.633317 h 23.132168 23.132156 v -6.890318 c 0,-8.186849 -0.103028,-8.729879 -2.020881,-10.660067 -2.117444,-2.130989 -0.679459,-2.010038 -23.896243,-2.010038 h -20.3472 v -7.156247 -7.156246 h 20.845664 c 22.832678,0 22.591065,-0.01409 26.318808,1.424912 6.739579,2.59978 12.014114,9.105512 13.156149,16.227186 0.163372,1.01962 0.249278,12.474777 0.250409,33.455452 l 0.0011,31.904922 H 78.681274 71.52699 Z M 88.745541,55.359622 c 0.07973,-6.347987 0.08898,-6.386475 1.857795,-7.590579 l 0.788382,-0.536721 h 21.630792 21.63076 l 0.80466,0.542412 c 0.44255,0.298312 1.04863,0.90459 1.34687,1.347259 0.52555,0.780089 0.54225,0.976265 0.54225,6.375288 v 5.570463 H 113.01046 88.673855 Z"
     id="path1-2"
     sodipodi:nodetypes="ssscsssssssscssscsssccccccccccccccccccssssscccccccccccccccccccccccccsscccccccssscccsssccccccssscsssssccccccccccccccccsscccccccsscccccssssssssccccsssccccsscccccssccccccsscccccccccscscsssscsscccsssccccccccccccccsssccccccssscccssscccsssssssssssscsssssccccccccssssscccccccccccccccccccccccccccccccccccccccccccccccccccccccccccccsscccssscsscccssscccsssssscccccssccccccccccccccccccccssscccscssccccsscccssscccs"
     inkscape:export-filename="path1.svg"
     inkscape:export-xdpi="96"
     inkscape:export-ydpi="96" />
</svg>
