<?xml version="1.0" encoding="UTF-8" standalone="no"?>
<!DOCTYPE svg PUBLIC "-//W3C//DTD SVG 1.1//EN" "http://www.w3.org/Graphics/SVG/1.1/DTD/svg11.dtd">
<svg width="100%" height="100%" viewBox="0 0 180 180" version="1.1" xmlns="http://www.w3.org/2000/svg" xmlns:xlink="http://www.w3.org/1999/xlink" xml:space="preserve" xmlns:serif="http://www.serif.com/" style="fill-rule:evenodd;clip-rule:evenodd;stroke-linejoin:round;stroke-miterlimit:2;">
    <path id="path1-2" d="M29.198,179.935C23.561,179.411 17.548,177.047 12.852,173.509C6.868,169 2.771,162.814 0.765,155.259L0.109,152.787L0.037,91.124C-0.043,22.542 -0.15,27.362 1.566,22.185C3.223,17.185 5.914,12.945 9.861,9.114C13.642,5.446 17.864,2.906 22.64,1.429C27.558,-0.092 23.202,0.001 89.816,0.001C131.62,0.001 151.024,0.08 152.206,0.256C166.89,2.438 178.143,14.156 179.792,28.984C179.981,30.691 180.035,48.498 179.979,91.601L179.901,151.833L179.367,154.157C177.848,160.766 175.083,165.797 170.406,170.462C165.679,175.178 160.713,177.915 154.152,179.422L151.775,179.968L90.964,179.996C57.517,180.011 29.723,179.984 29.198,179.935L29.198,179.935ZM140.079,138.671C150.065,136.922 157.74,129.862 160.511,119.878C160.905,118.458 161.067,116.966 161.16,113.889L161.285,109.792L140.051,109.792L140.051,112.402C140.051,115.262 139.741,116.069 138.205,117.207C137.495,117.733 137.437,117.734 114.384,117.734L91.275,117.734L90.45,117.146C88.777,115.952 88.628,115.28 88.628,108.92L88.628,103.236L161.244,103.236L161.167,84.767C161.091,66.699 161.077,66.255 160.542,64.362C157.917,55.074 151.291,48.476 142.051,45.951L139.925,45.37L88.754,45.37L86.612,45.955C84.433,46.55 80.388,48.325 79.069,49.264C78.669,49.549 78.229,49.782 78.091,49.782C77.953,49.782 77.103,49.334 76.2,48.785C74.286,47.622 72.117,46.704 69.471,45.939C67.599,45.398 67.342,45.392 43.066,45.31L18.552,45.227L18.552,66.424L64.607,66.424L65.44,66.991C67.31,68.264 67.32,68.304 67.404,75.014L67.48,81.048L18.552,81.048L18.552,103.236L67.454,103.236L67.454,139.025L102.709,139.034C132.618,139.04 138.285,138.986 140.079,138.671L140.079,138.671ZM70.479,118.113L70.479,100.211L21.577,100.211L21.577,84.074L70.479,84.074L70.479,76.79C70.479,68.137 70.37,67.563 68.343,65.522C66.105,63.27 67.625,63.398 43.084,63.398L21.577,63.398L21.577,48.269L43.611,48.269C67.746,48.269 67.49,48.254 71.431,49.775C78.554,52.523 84.13,59.4 85.337,66.928C85.51,68.006 85.6,80.114 85.602,102.291L85.603,136.015L70.478,136.015L70.479,118.113ZM88.679,75.014C88.763,68.304 88.773,68.264 90.642,66.991L91.476,66.424L137.204,66.424L138.054,66.997C138.522,67.312 139.163,67.953 139.478,68.421C140.034,69.246 140.051,69.453 140.051,75.16L140.051,81.048L88.603,81.048L88.679,75.014Z" style="fill:rgb(9,17,29);fill-rule:nonzero;"/>
</svg>
